<svg width="30" height="31" viewBox="0 0 30 31" fill="none" xmlns="http://www.w3.org/2000/svg">
<path d="M29.8535 5.96875C29.834 5.92969 29.8047 5.89063 29.7656 5.85156C29.7461 5.8125 29.7168 5.7832 29.6777 5.76367C29.6777 5.74414 29.6777 5.73438 29.6777 5.73438L23.1152 0.109375C23.0176 0.03125 22.9199 -0.0273437 22.8223 -0.0664062C22.7246 -0.105469 22.6172 -0.125 22.5 -0.125H7.5C7.38281 -0.125 7.27539 -0.105469 7.17773 -0.0664062C7.08008 -0.0273437 6.98242 0.03125 6.88477 0.109375L0.322266 5.73438C0.322266 5.73438 0.3125 5.74414 0.292969 5.76367C0.273438 5.7832 0.244141 5.8125 0.205078 5.85156C0.185547 5.89063 0.166016 5.92969 0.146484 5.96875C0.126953 5.98828 0.107422 6.00781 0.0878906 6.02734C0.0878906 6.02734 0.0878906 6.03711 0.0878906 6.05664C0.0683594 6.11523 0.0488281 6.18359 0.0292969 6.26172C0.00976562 6.32031 0 6.37891 0 6.4375V28.9375C0 29.1914 0.0878906 29.4062 0.263672 29.582C0.458984 29.7773 0.683594 29.875 0.9375 29.875H29.0625C29.3164 29.875 29.5312 29.7773 29.707 29.582C29.9023 29.4062 30 29.1914 30 28.9375V6.4375C30 6.37891 29.9902 6.32031 29.9707 6.26172C29.9512 6.18359 29.9316 6.11523 29.9121 6.05664C29.9121 6.03711 29.9023 6.02734 29.8828 6.02734C29.8828 6.00781 29.873 5.98828 29.8535 5.96875ZM26.543 5.5H19.3359L17.4609 1.75H22.1484L26.543 5.5ZM12.1875 7.375H17.8125V14.875H12.1875V7.375ZM15.3516 1.75L17.2266 5.5H12.7734L14.6484 1.75H15.3516ZM7.85156 1.75H12.5391L10.6641 5.5H3.45703L7.85156 1.75ZM1.875 28V7.375H10.3125V15.8125C10.3125 16.0664 10.4004 16.291 10.5762 16.4863C10.7715 16.6621 10.9961 16.75 11.25 16.75H18.75C19.0039 16.75 19.2188 16.6621 19.3945 16.4863C19.5898 16.291 19.6875 16.0664 19.6875 15.8125V7.375H28.125V28H1.875Z" transform="translate(0 1)" fill="#FF695C"/>
</svg>
