<svg width="30" height="28" viewBox="0 0 30 28" fill="none" xmlns="http://www.w3.org/2000/svg">
<path d="M29.4727 15.9004L26.0742 14.2012L23.3789 7.05273C23.3008 6.85742 23.1836 6.71094 23.0273 6.61328C22.8711 6.49609 22.6953 6.4375 22.5 6.4375H15V2.6875C15 2.43359 14.9023 2.21875 14.707 2.04297C14.5312 1.84766 14.3164 1.75 14.0625 1.75H0.9375C0.683594 1.75 0.458984 1.84766 0.263672 2.04297C0.0878906 2.21875 0 2.43359 0 2.6875C0 2.94141 0.0878906 3.16602 0.263672 3.36133C0.458984 3.53711 0.683594 3.625 0.9375 3.625H13.125V24.25C13.125 24.5039 13.2129 24.7285 13.3887 24.9238C13.584 25.0996 13.8086 25.1875 14.0625 25.1875H16.0254C16.2402 26.2617 16.7773 27.1602 17.6367 27.8828C18.4961 28.5859 19.4922 28.9375 20.625 28.9375C21.7578 28.9375 22.7539 28.5859 23.6133 27.8828C24.4727 27.1602 25.0098 26.2617 25.2246 25.1875H29.0625C29.3164 25.1875 29.5312 25.0996 29.707 24.9238C29.9023 24.7285 30 24.5039 30 24.25V16.75C30 16.5742 29.9512 16.4082 29.8535 16.252C29.7559 16.0957 29.6289 15.9785 29.4727 15.9004ZM20.625 27.0625C19.8438 27.0625 19.1797 26.7891 18.6328 26.2422C18.0859 25.6953 17.8125 25.0312 17.8125 24.25C17.8125 23.4688 18.0859 22.8047 18.6328 22.2578C19.1797 21.7109 19.8438 21.4375 20.625 21.4375C21.4062 21.4375 22.0703 21.7109 22.6172 22.2578C23.1641 22.8047 23.4375 23.4688 23.4375 24.25C23.4375 25.0312 23.1641 25.6953 22.6172 26.2422C22.0703 26.7891 21.4062 27.0625 20.625 27.0625ZM28.125 23.3125H25.2246C25.0098 22.2383 24.4727 21.3496 23.6133 20.6465C22.7539 19.9238 21.7578 19.5625 20.625 19.5625C19.4922 19.5625 18.4961 19.9238 17.6367 20.6465C16.7773 21.3496 16.2402 22.2383 16.0254 23.3125H15V8.3125H21.8555L24.4336 15.1973C24.4727 15.3145 24.5312 15.4219 24.6094 15.5195C24.6875 15.5977 24.7852 15.666 24.9023 15.7246L28.125 17.3359V23.3125ZM21.5625 13.9375H18.75V11.125C18.75 10.8711 18.6523 10.6562 18.457 10.4805C18.2812 10.2852 18.0664 10.1875 17.8125 10.1875C17.5586 10.1875 17.334 10.2852 17.1387 10.4805C16.9629 10.6562 16.875 10.8711 16.875 11.125V14.875C16.875 15.1289 16.9629 15.3535 17.1387 15.5488C17.334 15.7246 17.5586 15.8125 17.8125 15.8125H21.5625C21.8164 15.8125 22.0312 15.7246 22.207 15.5488C22.4023 15.3535 22.5 15.1289 22.5 14.875C22.5 14.6211 22.4023 14.4062 22.207 14.2305C22.0312 14.0352 21.8164 13.9375 21.5625 13.9375ZM10.3125 6.4375H2.8125C2.55859 6.4375 2.33398 6.53516 2.13867 6.73047C1.96289 6.90625 1.875 7.12109 1.875 7.375C1.875 7.62891 1.96289 7.85352 2.13867 8.04883C2.33398 8.22461 2.55859 8.3125 2.8125 8.3125H10.3125C10.5664 8.3125 10.7812 8.22461 10.957 8.04883C11.1523 7.85352 11.25 7.62891 11.25 7.375C11.25 7.12109 11.1523 6.90625 10.957 6.73047C10.7812 6.53516 10.5664 6.4375 10.3125 6.4375ZM10.3125 11.125H4.6875C4.43359 11.125 4.20898 11.2227 4.01367 11.418C3.83789 11.5938 3.75 11.8086 3.75 12.0625C3.75 12.3164 3.83789 12.541 4.01367 12.7363C4.20898 12.9121 4.43359 13 4.6875 13H10.3125C10.5664 13 10.7812 12.9121 10.957 12.7363C11.1523 12.541 11.25 12.3164 11.25 12.0625C11.25 11.8086 11.1523 11.5938 10.957 11.418C10.7812 11.2227 10.5664 11.125 10.3125 11.125ZM10.3125 15.8125H6.5625C6.30859 15.8125 6.08398 15.9102 5.88867 16.1055C5.71289 16.2812 5.625 16.4961 5.625 16.75C5.625 17.0039 5.71289 17.2285 5.88867 17.4238C6.08398 17.5996 6.30859 17.6875 6.5625 17.6875H10.3125C10.5664 17.6875 10.7812 17.5996 10.957 17.4238C11.1523 17.2285 11.25 17.0039 11.25 16.75C11.25 16.4961 11.1523 16.2812 10.957 16.1055C10.7812 15.9102 10.5664 15.8125 10.3125 15.8125Z" transform="translate(0 -1)" fill="#FF695C"/>
</svg>
