<svg width="26" height="30" viewBox="0 0 26 30" fill="none" xmlns="http://www.w3.org/2000/svg">
<path d="M2.8125 28.9375C2.8125 29.1914 2.90039 29.4062 3.07617 29.582C3.27148 29.7773 3.49609 29.875 3.75 29.875H26.25C26.5039 29.875 26.7188 29.7773 26.8945 29.582C27.0898 29.4062 27.1875 29.1914 27.1875 28.9375V1.75C27.1875 1.59375 27.1484 1.44727 27.0703 1.31055C27.0117 1.17383 26.9141 1.06641 26.7773 0.988281C26.6406 0.890625 26.4941 0.832031 26.3379 0.8125C26.2012 0.792969 26.0547 0.8125 25.8984 0.871094L21.6797 2.57031L19.2773 0.958984C19.1406 0.880859 18.9844 0.841797 18.8086 0.841797C18.6328 0.822266 18.4766 0.841797 18.3398 0.900391L15 2.57031L11.6602 0.900391C11.5234 0.841797 11.3672 0.822266 11.1914 0.841797C11.0156 0.841797 10.8594 0.880859 10.7227 0.958984L8.32031 2.57031L4.10156 0.871094C3.94531 0.8125 3.78906 0.792969 3.63281 0.8125C3.49609 0.832031 3.35938 0.890625 3.22266 0.988281C3.08594 1.06641 2.97852 1.17383 2.90039 1.31055C2.8418 1.44727 2.8125 1.59375 2.8125 1.75V28.9375ZM4.6875 3.12695L8.08594 4.50391C8.22266 4.5625 8.36914 4.58203 8.52539 4.5625C8.68164 4.54297 8.82812 4.49414 8.96484 4.41602L11.3086 2.83398L14.5898 4.47461C14.707 4.5332 14.8438 4.5625 15 4.5625C15.1563 4.5625 15.293 4.5332 15.4102 4.47461L18.6914 2.83398L21.0352 4.41602C21.1719 4.49414 21.3086 4.54297 21.4453 4.5625C21.6016 4.58203 21.7578 4.5625 21.9141 4.50391L25.3125 3.12695V28H4.6875V3.12695ZM14.5312 13H15.4688C15.8594 13 16.1914 13.1367 16.4648 13.4102C16.7383 13.6836 16.875 14.0156 16.875 14.4062C16.875 14.6602 16.9629 14.8848 17.1387 15.0801C17.334 15.2559 17.5586 15.3438 17.8125 15.3438C18.0664 15.3438 18.2812 15.2559 18.457 15.0801C18.6523 14.8848 18.75 14.6602 18.75 14.4062C18.75 13.5664 18.4766 12.8437 17.9297 12.2383C17.4023 11.6328 16.7383 11.2813 15.9375 11.1836V9.25C15.9375 8.99609 15.8398 8.78125 15.6445 8.60547C15.4688 8.41016 15.2539 8.3125 15 8.3125C14.7461 8.3125 14.5215 8.41016 14.3262 8.60547C14.1504 8.78125 14.0625 8.99609 14.0625 9.25V11.1836C13.2617 11.2813 12.5879 11.6328 12.041 12.2383C11.5137 12.8437 11.25 13.5664 11.25 14.4062C11.25 15.5977 11.6602 16.3984 12.4805 16.8086C13.3008 17.1992 14.0625 17.4824 14.7656 17.6582C15.5859 17.8535 16.1426 18.0488 16.4355 18.2441C16.7285 18.4199 16.875 18.7031 16.875 19.0938C16.875 19.4844 16.7383 19.8164 16.4648 20.0898C16.1914 20.3633 15.8594 20.5 15.4688 20.5H14.5312C14.1406 20.5 13.8086 20.3633 13.5352 20.0898C13.2617 19.8164 13.125 19.4844 13.125 19.0938C13.125 18.8398 13.0273 18.625 12.832 18.4492C12.6562 18.2539 12.4414 18.1562 12.1875 18.1562C11.9336 18.1562 11.709 18.2539 11.5137 18.4492C11.3379 18.625 11.25 18.8398 11.25 19.0938C11.25 19.9336 11.5137 20.6562 12.041 21.2617C12.5879 21.8672 13.2617 22.2188 14.0625 22.3164V24.25C14.0625 24.5039 14.1504 24.7285 14.3262 24.9238C14.5215 25.0996 14.7461 25.1875 15 25.1875C15.2539 25.1875 15.4688 25.0996 15.6445 24.9238C15.8398 24.7285 15.9375 24.5039 15.9375 24.25V22.3164C16.7383 22.2188 17.4023 21.8672 17.9297 21.2617C18.4766 20.6562 18.75 19.9336 18.75 19.0938C18.75 17.9023 18.3398 17.1113 17.5195 16.7207C16.6992 16.3105 15.9375 16.0176 15.2344 15.8418C14.4141 15.6465 13.8574 15.4609 13.5645 15.2852C13.2715 15.0898 13.125 14.7969 13.125 14.4062C13.125 14.0156 13.2617 13.6836 13.5352 13.4102C13.8086 13.1367 14.1406 13 14.5312 13Z" transform="translate(-2)" fill="#FF695C"/>
</svg>
