<svg width="30" height="30" viewBox="0 0 30 30" fill="none" xmlns="http://www.w3.org/2000/svg">
<path d="M23.4375 29.875C23.5547 29.875 23.6719 29.8457 23.7891 29.7871C23.9062 29.748 24.0137 29.6895 24.1113 29.6113L28.7988 24.9238C28.9746 24.7285 29.0625 24.5039 29.0625 24.25C29.0625 23.9961 28.9746 23.7715 28.7988 23.5762L22.2363 17.0137C22.041 16.8379 21.8164 16.75 21.5625 16.75C21.3086 16.75 21.084 16.8379 20.8887 17.0137L16.875 21.0566L8.81836 13L12.8613 8.98633C13.0371 8.79102 13.125 8.56641 13.125 8.3125C13.125 8.05859 13.0371 7.83398 12.8613 7.63867L6.29883 1.07617C6.10352 0.900391 5.87891 0.8125 5.625 0.8125C5.37109 0.8125 5.14648 0.900391 4.95117 1.07617L0.263672 5.76367C0.185547 5.86133 0.117188 5.96875 0.0585938 6.08594C0.0195312 6.20312 0 6.32031 0 6.4375C0 9.66016 0.615234 12.6973 1.8457 15.5488C3.07617 18.4004 4.74609 20.8906 6.85547 23.0195C8.98438 25.1289 11.4746 26.7988 14.3262 28.0293C17.1777 29.2598 20.2148 29.875 23.4375 29.875ZM5.625 3.06836L10.8691 8.3125L6.82617 12.3262C6.65039 12.5215 6.5625 12.7461 6.5625 13C6.5625 13.2539 6.65039 13.4785 6.82617 13.6738L16.2012 23.0488C16.3965 23.2246 16.6211 23.3125 16.875 23.3125C17.1289 23.3125 17.3535 23.2246 17.5488 23.0488L21.5625 19.0059L26.8066 24.25L23.0566 28C20.166 27.9414 17.4414 27.3555 14.8828 26.2422C12.3438 25.1094 10.1172 23.5859 8.20312 21.6719C6.28906 19.7578 4.76562 17.5312 3.63281 14.9922C2.51953 12.4336 1.93359 9.70898 1.875 6.81836L5.625 3.06836Z" fill="#FF695C"/>
</svg>
